<svg width="16" height="16" xmlns="http://www.w3.org/2000/svg" viewBox=" 0 0 13 13">

 <g>
  <title>Layer 1</title>
  <path stroke="null" id="svg_2" d="m1.3644,0.74196c-0.00838,-0.06449 0.05177,-0.09686 0.09016,-0.13433c0.12565,-0.12263 0.26527,-0.23207 0.43144,-0.3121c0.15765,-0.07593 0.32201,-0.13456 0.50215,-0.15106c0.09735,-0.00891 0.19588,-0.02371 0.29258,-0.01821c0.12018,0.00684 0.24068,0.02581 0.3581,0.05047c0.21633,0.04542 0.38898,0.16452 0.56591,0.27571c0.16782,0.10546 0.3105,0.23512 0.44071,0.37327c0.08541,0.09062 0.14614,0.19951 0.21672,0.30087c0.03177,0.04562 0.06293,0.09178 0.09037,0.13949c0.09666,0.16807 0.18248,0.3401 0.23918,0.5226c0.04774,0.15363 0.10758,0.30502 0.14297,0.46078c0.04156,0.18291 0.06505,0.36919 0.09183,0.55453c0.04645,0.32151 0.03915,0.64526 0.0524,0.9683c0.00961,0.23446 0.00984,0.47215 0.07693,0.7028c0.00745,0.02563 0.01092,0.05216 0.01908,0.08241c-0.0159,0.02275 -0.03465,0.04135 -0.05324,0.06017c0.00017,0.00022 -0.00036,-0.00004 -0.00462,0.00074c-0.04051,0.0275 -0.0364,0.0597 -0.02015,0.09739c-0.00013,0.01165 -0.00053,0.01941 -0.00521,0.02842c-0.00829,0.00682 -0.01563,0.0123 -0.01584,0.01799c-0.00477,0.13037 -0.01148,0.26077 -0.01124,0.39116c0.00007,0.03826 0.0203,0.0765 0.03174,0.11861c0.00048,0.01163 0.00052,0.01939 -0.00252,0.03003c0.0062,0.03609 0.01548,0.0693 0.02542,0.10662c0.00086,0.01513 0.00106,0.02616 -0.00171,0.03984c0.00617,0.02556 0.01532,0.04847 0.02497,0.07479c0.00047,0.00799 0.00045,0.01257 -0.00236,0.01997c0.01258,0.06271 0.02573,0.12314 0.04438,0.18222c0.0075,0.02377 0.02705,0.04458 0.04163,0.07011c0.00065,0.00791 0.00079,0.01245 -0.00199,0.01961c-0.00374,0.01102 -0.00811,0.02075 -0.00483,0.02763c0.04629,0.09688 0.09244,0.19384 0.14143,0.28966c0.01426,0.02789 0.03736,0.05225 0.05705,0.08131c0.00125,0.00723 0.00186,0.01138 0.00216,0.01945c0.02637,0.04058 0.05304,0.07723 0.08058,0.11681c0.00178,0.00688 0.00269,0.01084 0.00306,0.01873c0.05967,0.08819 0.11953,0.17262 0.18064,0.25635c0.00548,0.00751 0.01906,0.01041 0.02919,0.01543c0.00031,-0.00002 0.00039,0.00052 0.00067,0.00426c0.02894,0.04195 0.0559,0.08129 0.08689,0.11797c0.01989,0.02355 0.04574,0.04317 0.06849,0.06504c-0.00042,0.00048 0.00062,-0.00032 0.00059,0.00334c0.01866,0.0192 0.03736,0.03475 0.05776,0.05259c0.00489,0.0046 0.00809,0.0069 0.01161,0.01291c0.02393,0.02519 0.04754,0.04667 0.07359,0.07072c0.01657,0.01518 0.03068,0.0278 0.04503,0.04423c0.02787,0.05726 0.07217,0.09561 0.13586,0.11889c0.00246,0.00025 0.00723,0.00141 0.00752,0.00505c0.02367,0.02227 0.04705,0.0409 0.0721,0.06156c0.00431,0.00451 0.0074,0.00643 0.01129,0.01129c0.00841,0.00794 0.01646,0.01236 0.02735,0.01814c0.00826,0.00444 0.01368,0.00752 0.01964,0.01397c0.00836,0.00787 0.01617,0.01238 0.02756,0.0176c0.0127,0.00761 0.02184,0.0145 0.03158,0.0247c0.00839,0.00772 0.01617,0.01212 0.02368,0.01676c-0.00027,0.00023 0.00025,-0.00025 0.0006,0.00325c0.00839,0.00791 0.01643,0.01232 0.02693,0.0172c0.00245,0.00048 0.00723,0.00183 0.00782,0.00537c0.05221,0.03543 0.10383,0.06733 0.15937,0.09987c0.02023,0.00845 0.03653,0.01626 0.05373,0.02744c0.08392,0.04542 0.16693,0.08748 0.25265,0.12984c0.0027,0.00031 0.00805,0.00123 0.00892,0.00478c0.05128,0.05452 0.12687,0.0549 0.19501,0.07767c0.00844,0.00059 0.01325,0.00106 0.01881,0.00521c0.03181,0.0119 0.06286,0.02012 0.09774,0.02844c0.00889,0.00072 0.01395,0.00133 0.02008,0.00555c0.00577,0.00896 0.00952,0.01797 0.0153,0.01915c0.11515,0.0234 0.23002,0.04838 0.34614,0.06737c0.04792,0.00784 0.09862,0.00242 0.15362,0.00277c0.06931,-0.00013 0.13307,0 0.19981,0.00273c0.08965,0.00292 0.14358,-0.03315 0.17265,-0.11496c0.00031,-0.01818 0.00045,-0.03217 0.00447,-0.04749c0.02207,0.00147 0.04045,0.00353 0.0584,0.00724c0.03585,0.00741 0.07147,0.01573 0.11187,0.02388c0.03211,0.00502 0.05953,0.00984 0.08804,0.01835c0.05603,0.0309 0.11328,0.04848 0.18193,0.0366c0.01307,0.00046 0.02177,0.00104 0.03182,0.00517c0.01479,0.00965 0.02769,0.01973 0.04178,0.02125c0.11724,0.01269 0.23466,0.02425 0.35217,0.03484c0.01421,0.00128 0.02932,-0.00522 0.04933,-0.0084c0.03716,0.00024 0.069,0.00076 0.10215,0.00467c0.02061,0.00316 0.03991,0.00293 0.06472,0.00278c0.06097,0 0.11642,-0.00008 0.1746,0.00302c0.02504,-0.00097 0.04735,-0.00511 0.07426,-0.0093c0.03597,0.0019 0.06734,0.00384 0.10436,0.00649c0.09332,-0.00273 0.18101,-0.00589 0.26864,-0.01008c0.00848,-0.0004 0.01656,-0.00722 0.02933,-0.01102c0.01649,-0.00009 0.02848,-0.00021 0.04564,0.00026c0.03038,-0.00559 0.05558,-0.01179 0.08465,-0.01831c0.00905,-0.00033 0.01423,-0.00034 0.02263,0.00236c0.02874,-0.00001 0.05426,-0.00272 0.08341,-0.0054c0.00845,0.00013 0.01327,0.00023 0.02348,0.00084c0.03821,-0.00564 0.07105,-0.01179 0.1089,-0.01836c0.02521,-0.00054 0.04539,-0.00067 0.0691,0.00204c0.05008,-0.00027 0.10449,0.03062 0.14434,-0.02225c0.01712,-0.00061 0.0296,-0.00067 0.04528,0.00182c0.03405,0.00641 0.06756,0.01665 0.08422,-0.02306c0.00899,-0.00046 0.01415,-0.00049 0.02197,0.00177c0.07151,-0.01558 0.13773,-0.03701 0.17548,-0.09736c0,-0.00027 0.00062,-0.00028 0.00464,-0.0009c0.08032,-0.05443 0.08664,-0.12931 0.07436,-0.20501c-0.00456,-0.02809 0.00749,-0.0354 0.03134,-0.04612c0.01347,0.00001 0.02246,0.00022 0.03349,0.00275c0.00853,-0.0029 0.01502,-0.00812 0.02394,-0.01476c0.00552,-0.00356 0.00817,-0.00607 0.01559,-0.00901c0.041,-0.00411 0.07679,-0.00814 0.11709,-0.01215c0.01655,-0.00009 0.02859,-0.00019 0.04598,0.00031c0.13421,-0.00185 0.25547,-0.03094 0.36939,-0.08318c0.02061,-0.00945 0.03659,-0.02678 0.05793,-0.04226c0.01707,-0.01473 0.03093,-0.02768 0.04882,-0.04111c0.02872,-0.03176 0.05341,-0.06304 0.07809,-0.09432c0.16452,0.05533 0.32997,0.10861 0.49334,0.16649c0.22547,0.07988 0.44895,0.16413 0.67406,0.24481c0.19135,0.06859 0.17762,0.24072 0.07959,0.31257c-0.03327,0.02439 -0.07921,0.03806 -0.12186,0.04918c-0.13733,0.03581 -0.27583,0.06815 -0.41388,0.10182c-0.18453,0.045 -0.36903,0.09009 -0.55361,0.13494c-0.08112,0.01972 -0.1624,0.03896 -0.24764,0.05476c0.05485,-0.03435 0.11374,-0.06505 0.17262,-0.09575c-0.00092,-0.00619 -0.00183,-0.01238 -0.00275,-0.01857c-0.02836,-0.00145 -0.05728,-0.0067 -0.08498,-0.00358c-0.06206,0.00699 -0.12337,0.01905 -0.18526,0.02742c-0.15287,0.02067 -0.30555,0.04287 -0.45896,0.05983c-0.13413,0.01483 -0.26891,0.02835 -0.40383,0.03334c-0.15373,0.00569 -0.30795,0.0015 -0.46195,0.001c-0.02144,-0.00007 -0.0429,-0.00333 -0.06429,-0.00562c-0.11083,-0.01184 -0.22143,-0.02611 -0.33262,-0.03379c-0.02137,-0.00148 -0.05607,0.01827 -0.06518,0.03602c-0.01621,0.03158 0.00555,0.05639 0.04471,0.0655c0.01707,0.00397 0.03403,0.00895 0.05142,0.01114c0.06591,0.0083 0.13181,0.01706 0.19802,0.02307c0.1559,0.01415 0.3117,0.03136 0.46805,0.0385c0.10565,0.00482 0.21241,-0.00269 0.31825,-0.00968c0.09557,-0.00631 0.19052,-0.01978 0.28584,-0.02933c0.04929,-0.00493 0.09879,-0.00819 0.1482,-0.01221c-0.02466,0.00975 -0.04932,0.0195 -0.07359,0.02909c-0.01081,0.07848 -0.01322,0.1608 -0.03485,0.23896c-0.0395,0.14278 -0.08713,0.28402 -0.13772,0.42411c-0.03078,0.08521 -0.06517,0.171 -0.11283,0.24947c-0.06355,0.10464 -0.13581,0.20615 -0.21521,0.30197c-0.06207,0.0749 -0.13888,0.14065 -0.21269,0.2074c-0.04083,0.03692 -0.08594,0.07155 -0.13443,0.1002c-0.11578,0.06841 -0.23014,0.14048 -0.35352,0.19659c-0.14911,0.0678 -0.30381,0.12853 -0.46196,0.17753c-0.12958,0.04015 -0.26709,0.06152 -0.40231,0.08596c-0.14315,0.02588 -0.28774,0.04558 -0.43172,0.06787c-0.01541,0.00239 -0.03089,0.00526 -0.04645,0.00591c-0.09229,0.00387 -0.1847,0.01134 -0.27689,0.00971c-0.16498,-0.00292 -0.32983,-0.01165 -0.49476,-0.01725c-0.01311,-0.00045 -0.02646,0.00449 -0.04732,0.00456c-0.01826,-0.00622 -0.02855,-0.01209 -0.0396,-0.01361c-0.07942,-0.0109 -0.15896,-0.02107 -0.23852,-0.03117c-0.09261,-0.01175 -0.18527,-0.02319 -0.27791,-0.03477c-0.13649,-0.02788 -0.27337,-0.05438 -0.40936,-0.08402c-0.13056,-0.02845 -0.2622,-0.0548 -0.3898,-0.09169c-0.18717,-0.0541 -0.37115,-0.11683 -0.5566,-0.1756c-0.01091,-0.00346 -0.02285,-0.00435 -0.04086,-0.00952c-0.12418,-0.0502 -0.24159,-0.09777 -0.35953,-0.14426c-0.06218,-0.02451 -0.12532,-0.04714 -0.18802,-0.07062c-0.09633,-0.04807 -0.19386,-0.09437 -0.28872,-0.14461c-0.15382,-0.08146 -0.31069,-0.15944 -0.45737,-0.25011c-0.1555,-0.09612 -0.30057,-0.20539 -0.45029,-0.30882c-0.11602,-0.08015 -0.23298,-0.15925 -0.348,-0.24051c-0.08547,-0.06038 -0.17191,-0.12022 -0.25175,-0.18614c-0.10739,-0.08867 -0.21472,-0.17841 -0.3115,-0.27588c-0.15293,-0.15403 -0.28804,-0.3203 -0.40069,-0.50034c-0.04585,-0.07327 -0.10312,-0.14111 -0.14668,-0.21531c-0.06135,-0.10449 -0.1271,-0.20901 -0.16857,-0.32005c-0.05536,-0.14822 -0.10513,-0.30087 -0.12779,-0.45501c-0.02183,-0.14853 -0.00903,-0.30142 -0.00574,-0.4523c0.00181,-0.08295 0.01034,-0.1664 0.02485,-0.24838c0.01897,-0.10725 0.04672,-0.2133 0.07091,-0.31982c0.0231,-0.10173 0.04362,-0.20401 0.0705,-0.30496c0.03209,-0.12054 0.06915,-0.24006 0.10517,-0.35976c0.03375,-0.11215 0.0669,-0.22449 0.10395,-0.3358c0.07272,-0.21843 0.15155,-0.43532 0.22112,-0.65451c0.06066,-0.19113 0.11757,-0.38349 0.16563,-0.57735c0.03218,-0.12981 0.05248,-0.26262 0.06658,-0.39505c0.02286,-0.21481 0.02621,-0.42946 -0.01906,-0.64392c-0.04102,-0.19434 -0.13411,-0.36482 -0.27648,-0.5143c-0.02259,-0.02372 -0.07109,-0.03443 -0.1095,-0.03912c-0.22114,-0.02703 -0.44307,-0.04898 -0.66417,-0.07622c-0.04856,-0.00598 -0.09484,-0.0264 -0.14543,-0.04376c0.00661,-0.0163 0.02239,-0.02798 0.02546,-0.04186c0.03064,-0.13836 0.05919,-0.27708 0.08944,-0.41953c0.00036,-0.01165 -0.00039,-0.01948 0.0009,-0.03101c0.00228,-0.02634 0.0042,-0.04906 0.00248,-0.07157c-0.01301,-0.17009 -0.06989,-0.32184 -0.25926,-0.39825c-0.07445,-0.03004 -0.16225,-0.03428 -0.24397,-0.05026m1.03588,0.18905c0.03349,0.02597 0.07345,0.02917 0.09667,-0.00271c0.01569,-0.02153 0.02058,-0.06094 0.00893,-0.08387c-0.02534,-0.04986 -0.06243,-0.09553 -0.09893,-0.14023c-0.01135,-0.0139 -0.04802,-0.0304 -0.05289,-0.02642c-0.01916,0.01568 -0.04665,0.04322 -0.04153,0.0588c0.02128,0.06487 0.05329,0.127 0.08775,0.19443z" fill="#F8F1F2"/>
  <path stroke="null" id="svg_3" d="m6.46226,7.44931c-0.0163,-0.00781 -0.03261,-0.01562 -0.05366,-0.02759c-0.05621,-0.03607 -0.10767,-0.06798 -0.15913,-0.09989c0,0 -0.00478,-0.00135 -0.00819,-0.005c-0.01105,-0.00828 -0.01868,-0.0129 -0.02632,-0.01753c0,0 -0.00052,0.00048 -0.00095,-0.00302c-0.00815,-0.00794 -0.01587,-0.01237 -0.02359,-0.0168c-0.00914,-0.00689 -0.01827,-0.01378 -0.03168,-0.02467c-0.01198,-0.00856 -0.01969,-0.01312 -0.0274,-0.01768c-0.00542,-0.00308 -0.01084,-0.00617 -0.02006,-0.01377c-0.01145,-0.00918 -0.0191,-0.01383 -0.02674,-0.01848c-0.00354,-0.00135 -0.00662,-0.00327 -0.01135,-0.01136c-0.02539,-0.02428 -0.04868,-0.04294 -0.07197,-0.06161c0,0 -0.00477,-0.00117 -0.00842,-0.00475c-0.0474,-0.04218 -0.09115,-0.08078 -0.13491,-0.11938c-0.01411,-0.01261 -0.02823,-0.02522 -0.04509,-0.04398c-0.02637,-0.02771 -0.05,-0.04928 -0.07363,-0.07086c-0.00319,-0.0023 -0.00639,-0.0046 -0.0111,-0.01282c-0.02031,-0.02149 -0.0391,-0.03706 -0.05789,-0.05263c0,0 -0.00104,0.0008 -0.00123,-0.00328c-0.05181,-0.06377 -0.10343,-0.12346 -0.15505,-0.18315c0,0 -0.00008,-0.00054 -0.00038,-0.00425c-0.05875,-0.08428 -0.11684,-0.16507 -0.17613,-0.24516c-0.00795,-0.01074 -0.02198,-0.01797 -0.03319,-0.02683c-0.00091,-0.00396 -0.00182,-0.00791 -0.00361,-0.0186c-0.02735,-0.04347 -0.05381,-0.0802 -0.08027,-0.11693c-0.0006,-0.00415 -0.00121,-0.00829 -0.00259,-0.01941c-0.04414,-0.09565 -0.08759,-0.18428 -0.13081,-0.273c-0.02015,-0.04136 -0.03987,-0.08287 -0.05978,-0.12432c-0.00014,-0.00454 -0.00028,-0.00908 -0.0005,-0.02104c-0.01186,-0.04543 -0.0227,-0.0837 -0.0357,-0.12139c-0.015,-0.04351 -0.0319,-0.0865 -0.04798,-0.12972c0.00003,-0.00458 0.00006,-0.00916 0.0006,-0.0213c-0.00733,-0.02947 -0.01517,-0.05138 -0.02302,-0.07329c-0.0002,-0.01103 -0.0004,-0.02206 -0.00033,-0.04159c-0.00757,-0.0407 -0.01542,-0.07289 -0.02327,-0.10508c-0.00004,-0.00776 -0.00008,-0.01553 0.0002,-0.03203c-0.00364,-0.11819 -0.00956,-0.22763 -0.01082,-0.33711c-0.00072,-0.0623 0.00619,-0.12468 0.00967,-0.18702c0.0004,-0.00776 0.0008,-0.01553 0.00447,-0.02968c0.00914,-0.03615 0.01501,-0.06591 0.02087,-0.09567c0,0 0.00053,0.00026 0.00494,0.0001c0.02311,-0.00773 0.05096,-0.01092 0.05876,-0.02368c0.02186,-0.03576 0.05371,-0.04022 0.09392,-0.04007c0.25085,0.00094 0.50171,0.00074 0.75257,0.00023c0.02091,-0.00004 0.04181,-0.00514 0.06271,-0.00789c0.05973,0.00232 0.11945,0.00464 0.18768,0.01012c0.10123,0.00576 0.19396,0.00836 0.28668,0.01096c0.0159,0.00002 0.0318,0.00004 0.05438,0.00394c0.12106,0.01405 0.23546,0.02421 0.34985,0.03437c0.00508,0.00021 0.01016,0.00043 0.02211,0.00367c0.05658,0.00758 0.1063,0.01214 0.15602,0.01669c0.00864,0.00034 0.01727,0.00068 0.03305,0.00404c0.04918,0.00757 0.09121,0.01212 0.13325,0.01668c0.00856,0.00033 0.01713,0.00066 0.03253,0.00396c0.04058,0.00588 0.07432,0.00878 0.10807,0.01169c0.00831,-0.00009 0.01662,-0.00018 0.03082,0.00329c0.03716,0.00796 0.06842,0.01235 0.09969,0.01675c0.00832,0.00012 0.01665,0.00025 0.03087,0.00412c0.10084,0.02077 0.19577,0.03779 0.29071,0.05481c0.00499,0.00044 0.00997,0.00089 0.02134,0.00456c0.03274,0.00761 0.05909,0.01198 0.08545,0.01636c0.005,0.00028 0.00999,0.00057 0.02117,0.00399c0.0288,0.00744 0.05143,0.01174 0.07405,0.01605c0.00491,0.00048 0.00982,0.00097 0.02042,0.00457c0.02405,0.00541 0.04241,0.0077 0.06077,0.00999c0.00835,0.00034 0.0167,0.00068 0.03087,0.00472c0.07322,0.02056 0.14063,0.03741 0.20803,0.05426c0.00491,0.0006 0.00981,0.0012 0.02091,0.00506c0.09758,0.03589 0.1892,0.06803 0.28031,0.10127c0.1362,0.0497 0.26793,0.1057 0.36317,0.21064c-0.00011,0.01469 -0.00021,0.02939 -0.00409,0.04993c-0.03854,0.03515 -0.07252,0.06525 -0.1084,0.09346c-0.02138,0.01681 -0.04573,0.03067 -0.07303,0.04529c-0.08268,-0.02734 -0.15917,-0.06035 -0.23985,-0.07962c-0.18102,-0.04323 -0.36279,-0.08568 -0.54668,-0.11748c-0.31685,-0.05479 -0.63215,-0.11933 -0.95572,-0.13903c-0.2074,-0.01263 -0.41456,-0.0285 -0.62202,-0.0403c-0.11382,-0.00647 -0.22807,-0.01011 -0.34205,-0.00895c-0.02451,0.00025 -0.06479,0.024 -0.0686,0.0418c-0.00406,0.01899 0.02365,0.04602 0.04309,0.06508c0.0103,0.0101 0.03211,0.01307 0.04938,0.01527c0.14539,0.01849 0.29119,0.03455 0.43636,0.05427c0.18188,0.0247 0.36343,0.05139 0.54484,0.0787c0.16591,0.02498 0.33183,0.05016 0.49702,0.07853c0.15776,0.02709 0.31515,0.05631 0.4717,0.08841c0.16704,0.03425 0.33179,0.07776 0.49957,0.10854c0.21851,0.04009 0.43961,0.06912 0.65828,0.10862c0.0534,0.00965 0.07296,0.00009 0.08233,-0.04361c0.02187,0.00574 0.03958,0.01126 0.05729,0.01679c0.00484,0.0008 0.00967,0.0016 0.01996,0.0061c0.13309,0.05967 0.25981,0.11735 0.38854,0.17128c0.33719,0.14128 0.64373,0.32455 0.93674,0.52702c0.05016,0.03466 0.10458,0.06452 0.15703,0.09659c0,0 0.00105,-0.00062 0.00148,0.00331c0.05988,0.04979 0.11933,0.09564 0.17878,0.14149c0,0 -0.00034,0.00069 0.0001,0.00421c0.04479,0.10918 0.15749,0.1353 0.25765,0.17601c0,0 0.00051,0.0004 0.00192,0.00378c0.01243,0.00787 0.02346,0.01237 0.03448,0.01686c0,0 0.00099,-0.00058 0.00162,0.00337c0.02815,0.01849 0.05567,0.03302 0.08318,0.04755c0,0 -0.00014,0.00026 0.00148,0.00346c0.03937,0.0365 0.07713,0.06981 0.11489,0.10312c0.00513,0.01404 0.01025,0.02807 0.01518,0.05065c0.01332,0.07729 -0.01962,0.13414 -0.05948,0.18921c-0.01386,0.01295 -0.02771,0.0259 -0.04909,0.04074c-0.09901,0.03015 -0.19024,0.0591 -0.28211,0.08637c-0.04818,0.0143 -0.09747,0.02566 -0.14626,0.03835c-0.01204,0.00011 -0.02407,0.00021 -0.04421,-0.00227c-0.0452,-0.00026 -0.0823,0.00206 -0.11952,-0.00002c0.00601,-0.0349 -0.00977,-0.04745 -0.04334,-0.05273c-0.0807,-0.01269 -0.16152,-0.02578 -0.24105,-0.04315c-0.35012,-0.07646 -0.70125,-0.14977 -1.04914,-0.23354c-0.25116,-0.06048 -0.4998,-0.13054 -0.74581,-0.20588c-0.18953,-0.05804 -0.37434,-0.12865 -0.55922,-0.19789c-0.16021,-0.06 -0.31934,-0.12275 -0.47565,-0.19024c-0.12646,-0.0546 -0.24965,-0.1156 -0.37133,-0.17825c-0.13702,-0.07055 -0.27247,-0.14375 -0.40539,-0.22016c-0.14124,-0.0812 -0.2821,-0.16352 -0.41684,-0.25275c-0.13286,-0.08798 -0.26303,-0.1803 -0.38457,-0.28005c-0.08878,-0.07287 -0.16153,-0.16095 -0.24168,-0.24206c-0.02072,-0.02096 -0.04261,-0.03683 -0.07587,-0.01569c-0.03112,0.01979 -0.02953,0.04135 -0.01038,0.06675c0.01197,0.01588 0.02121,0.03338 0.03314,0.04929c0.17509,0.23342 0.40545,0.41894 0.65728,0.58458c0.13344,0.08777 0.27205,0.16948 0.40965,0.2522c0.09385,0.05642 0.18642,0.11569 0.28592,0.16332c0.1769,0.08469 0.35719,0.16418 0.53876,0.24084c0.16772,0.07081 0.3357,0.14278 0.50946,0.20034c0.25212,0.08353 0.50914,0.15564 0.76494,0.23031c0.0819,0.02391 0.16652,0.0406 0.24995,0.06039c0.15623,0.03706 0.31172,0.0769 0.46898,0.11015c0.1715,0.03627 0.34457,0.0668 0.51716,0.09898c0.07465,0.01392 0.1499,0.02537 0.22473,0.03856c0.07674,0.01352 0.1533,0.0278 0.22997,0.0462c0.00414,0.03012 0.01657,0.05738 0.01074,0.08114c-0.01465,0.05978 -0.03754,0.11799 -0.05713,0.17683c0,0 -0.00062,0.00001 -0.00481,0.00036c-0.06077,0.0319 -0.11736,0.06344 -0.17395,0.09499c-0.00516,0.00003 -0.01031,0.00006 -0.0239,-0.00019c-0.03323,0.00689 -0.05803,0.01406 -0.08283,0.02123c-0.01248,0.00005 -0.02496,0.0001 -0.04725,-0.00012c-0.0541,0.00657 -0.0984,0.01341 -0.1427,0.02026c-0.02019,0.00013 -0.04037,0.00026 -0.07085,0.00005c-0.0432,0.00597 -0.07611,0.01228 -0.10901,0.01859c-0.00483,-0.00009 -0.00965,-0.00019 -0.02148,-0.00282c-0.03242,0.00004 -0.05783,0.00262 -0.08325,0.00519c-0.00518,0.00001 -0.01036,0.00001 -0.02444,-0.00027c-0.0342,0.00592 -0.0595,0.01212 -0.0848,0.01832c-0.01199,0.00013 -0.02398,0.00026 -0.04427,-0.0023c-0.09704,-0.00009 -0.18582,0.00203 -0.2745,0.00585c-0.00873,0.00038 -0.01689,0.0112 -0.02532,0.01718c-0.03138,-0.00194 -0.06275,-0.00389 -0.10348,-0.00665c-0.03031,0.00178 -0.05126,0.00438 -0.07222,0.00699c-0.05546,0.00008 -0.11091,0.00016 -0.17523,-0.00236c-0.0268,-0.00295 -0.04474,-0.0033 -0.06268,-0.00365c-0.03184,-0.00052 -0.06367,-0.00104 -0.10381,-0.00466c-0.03898,-0.00678 -0.0696,-0.01097 -0.10036,-0.01407c-0.11374,-0.01146 -0.22753,-0.02255 -0.34129,-0.03378c-0.0087,-0.00058 -0.01741,-0.00116 -0.03318,-0.00471c-0.06482,-0.01438 -0.12257,-0.02579 -0.18032,-0.03721c-0.02742,-0.00481 -0.05484,-0.00962 -0.08846,-0.01809c-0.05457,-0.02124 -0.10205,-0.0413 -0.15172,-0.05532c-0.0238,-0.00672 -0.03999,0.00447 -0.02093,0.02898c-0.00014,0.01399 -0.00028,0.02797 -0.00442,0.04715c-0.05994,0.04058 -0.11588,0.07597 -0.17182,0.11136c-0.06375,-0.00013 -0.12751,-0.00026 -0.19978,-0.00337c-0.17674,-0.03187 -0.34496,-0.06075 -0.51318,-0.08964c-0.00506,-0.00062 -0.01012,-0.00123 -0.02098,-0.00534c-0.03604,-0.01191 -0.06629,-0.02032 -0.09653,-0.02873c-0.00481,-0.00047 -0.00962,-0.00094 -0.01951,-0.00492c-0.06819,-0.02828 -0.1313,-0.05306 -0.19442,-0.07783c0,0 -0.00535,-0.00091 -0.00899,-0.00479c-0.06462,-0.03615 -0.12535,-0.0688 -0.18671,-0.1005c-0.02116,-0.01093 -0.04389,-0.0195 -0.06591,-0.02915m-0.35278,-0.92158c-0.02012,-0.02354 -0.04072,-0.04676 -0.06027,-0.07067c-0.10585,-0.12944 -0.22346,-0.25288 -0.31383,-0.3903c-0.09545,-0.14514 -0.17064,-0.30153 -0.24365,-0.45705c-0.05003,-0.10658 -0.08149,-0.21998 -0.12068,-0.3305c-0.02391,-0.06743 -0.04428,-0.13597 -0.07207,-0.20209c-0.00573,-0.01364 -0.0373,-0.01881 -0.05696,-0.02789c-0.0062,0.01256 -0.01962,0.02624 -0.01737,0.03747c0.01084,0.05419 0.03033,0.10719 0.03864,0.16158c0.02615,0.17113 0.0915,0.33216 0.1643,0.49032c0.07284,0.15823 0.15041,0.31512 0.26176,0.45688c0.09628,0.12256 0.17647,0.25674 0.28568,0.36918c0.14037,0.14451 0.29998,0.27487 0.45614,0.40686c0.177,0.1496 0.38547,0.26219 0.59774,0.36676c0.21798,0.10739 0.4503,0.18813 0.69404,0.2384c0.07029,0.0145 0.14487,0.0128 0.21748,0.01853c0.00255,-0.00619 0.0051,-0.01239 0.00765,-0.01858c-0.01144,-0.00867 -0.02138,-0.02044 -0.03459,-0.02548c-0.05143,-0.01961 -0.10442,-0.03601 -0.15587,-0.05556c-0.12101,-0.04599 -0.24344,-0.08954 -0.36169,-0.1406c-0.17052,-0.07363 -0.34453,-0.14358 -0.50508,-0.23204c-0.29184,-0.1608 -0.54579,-0.36384 -0.78137,-0.59524z" fill="#C5C0A0"/>
  <path stroke="null" id="svg_4" d="m5.09271,9.62103c0.06238,0.01894 0.12552,0.04157 0.1877,0.06608c0.11795,0.04649 0.23535,0.09405 0.35448,0.14394c-0.0015,0.09376 -0.00449,0.18475 -0.00989,0.28392c-0.00352,0.04125 -0.00463,0.07432 -0.00575,0.10739c-0.0055,0.20241 -0.01099,0.40481 -0.01827,0.61552c-0.00005,0.04191 0.00169,0.07552 0.00342,0.10914c-0.00058,0.05865 -0.00117,0.11729 -0.00334,0.1834c0.00003,0.02065 0.00165,0.03384 0.00327,0.04703c0.0024,0.19243 0.00347,0.38488 0.00842,0.57726c0.00091,0.03531 0.01756,0.07031 0.02815,0.11375c0.00168,0.03653 0.00215,0.06476 0.00263,0.09299c-0.04678,0.19315 -0.1942,0.32256 -0.36207,0.43583c-0.25998,0.17543 -0.56355,0.26592 -0.87579,0.33681c-0.02418,0.00549 -0.05159,0.00625 -0.07622,0.00255c-0.05594,-0.00839 -0.07748,-0.05393 -0.04168,-0.09239c0.06256,-0.06719 0.13001,-0.13081 0.19384,-0.1971c0.01139,-0.01183 0.01522,-0.02935 0.02254,-0.04424c-0.01591,-0.00439 -0.03258,-0.01406 -0.04761,-0.01236c-0.14581,0.01646 -0.29135,0.03477 -0.43694,0.05272c-0.01751,0.00216 -0.03476,0.00607 -0.0523,0.00794c-0.03787,0.00404 -0.07398,-0.00091 -0.08892,-0.03618c-0.01591,-0.03756 0.01921,-0.05195 0.04799,-0.06727c0.14487,-0.07715 0.28981,-0.15418 0.44258,-0.23426c0.01188,-0.00947 0.01592,-0.01595 0.01996,-0.02242c-0.0161,-0.00171 -0.0322,-0.00343 -0.0483,-0.00514c-0.04379,0.00004 -0.08757,0.00008 -0.14045,0.00029c-0.01907,0.00228 -0.02905,0.0044 -0.03903,0.00652c-0.03186,0.00395 -0.06373,0.00789 -0.10497,0.01257c-0.02202,0.00125 -0.03466,0.00176 -0.04731,0.00227c-0.01577,-0.01167 -0.03154,-0.02334 -0.0483,-0.0419c-0.00149,-0.01492 -0.00199,-0.02296 -0.00249,-0.03099c0.03149,-0.02137 0.06298,-0.04274 0.10084,-0.0669c0.01151,-0.00685 0.01665,-0.01091 0.02179,-0.01497c0.10412,-0.04145 0.20814,-0.08308 0.31245,-0.12414c0.01586,-0.00624 0.03306,-0.0098 0.05655,-0.01721c0.01242,-0.0059 0.01794,-0.00919 0.02345,-0.01249c0.00859,-0.00072 0.01717,-0.00144 0.03383,-0.00319c0.01623,-0.00665 0.02439,-0.01227 0.03255,-0.0179c0.01415,-0.00039 0.02831,-0.00078 0.05004,-0.00201c0.01346,-0.00403 0.01935,-0.00723 0.02523,-0.01043c0.02069,-0.00294 0.04138,-0.00589 0.0696,-0.01018c0.01353,-0.0042 0.01953,-0.00706 0.02553,-0.00992c0.02843,-0.00277 0.05686,-0.00554 0.0935,-0.00958c0.01785,-0.00446 0.02748,-0.00764 0.03712,-0.01083c0.04422,-0.00235 0.08844,-0.0047 0.14227,-0.00829c0.04601,-0.00483 0.08241,-0.00842 0.11881,-0.01201c0.13143,0.00317 0.13143,0.00317 0.11947,-0.12939c-0.00367,-0.01291 -0.00661,-0.01833 -0.00955,-0.02374c-0.00387,-0.02827 -0.00775,-0.05654 -0.01252,-0.09201c-0.00381,-0.01264 -0.00674,-0.01808 -0.00966,-0.02351c-0.00369,-0.02815 -0.00738,-0.0563 -0.01187,-0.09221c-0.00493,-0.01973 -0.00906,-0.03169 -0.01319,-0.04366c-0.00354,-0.03192 -0.00707,-0.06384 -0.01194,-0.10345c-0.005,-0.01954 -0.00866,-0.03138 -0.01233,-0.04322c-0.00435,-0.04562 -0.0087,-0.09124 -0.01358,-0.14443c-0.00351,-0.01629 -0.00648,-0.025 -0.00945,-0.03372c-0.00152,-0.03478 -0.00304,-0.06955 -0.00472,-0.11233c-0.00277,-0.01672 -0.00538,-0.02544 -0.008,-0.03417c-0.0047,-0.07668 -0.0094,-0.15337 -0.01465,-0.23874c-0.00319,-0.02404 -0.00584,-0.03939 -0.00848,-0.05474c0.00036,-0.25768 0.00072,-0.51536 0.00328,-0.781c0.00256,-0.02383 0.00293,-0.0397 0.00329,-0.05557c0.00176,-0.0244 0.00352,-0.0488 0.00495,-0.07774m-0.32872,2.65635c0.08615,-0.04005 0.17491,-0.07635 0.25765,-0.12131c0.07081,-0.03847 0.13552,-0.08596 0.20087,-0.13175c0.01083,-0.00759 0.01112,-0.02693 0.01628,-0.04084c-0.01798,-0.00341 -0.0379,-0.01276 -0.05347,-0.00878c-0.02164,0.00553 -0.04043,0.0205 -0.0597,0.03238c-0.06544,0.04032 -0.12849,0.084 -0.19628,0.12092c-0.09468,0.05157 -0.19324,0.09755 -0.28889,0.14778c-0.01162,0.0061 -0.01552,0.02368 -0.023,0.03594c0.01712,0.004 0.03703,0.01491 0.05079,0.01058c0.0309,-0.00973 0.05876,-0.02703 0.09575,-0.0449m-0.21265,-0.29372c-0.01674,0.01474 -0.06809,0.00027 -0.05095,0.03908c0.00513,0.01162 0.0477,0.01399 0.07311,0.01398c0.02693,-0.00001 0.05387,-0.00779 0.08078,-0.01235c0.1416,-0.024 0.28337,-0.04729 0.42452,-0.07318c0.01585,-0.00291 0.02821,-0.02067 0.04219,-0.03155c-0.01974,-0.00498 -0.04018,-0.01567 -0.0591,-0.01388c-0.05979,0.00565 -0.11909,0.01557 -0.17844,0.02457c-0.10772,0.01633 -0.21534,0.03319 -0.3321,0.05334z" fill="#CD5F4C"/>
  <path stroke="null" id="svg_5" d="m7.03637,10.19703c0.09284,0.00675 0.1855,0.01819 0.27811,0.02995c0.07956,0.0101 0.1591,0.02027 0.23852,0.03117c0.01105,0.00152 0.02133,0.00739 0.03507,0.01406c0.00056,0.0341 -0.00197,0.06539 -0.00661,0.10488c-0.00295,0.04123 -0.0038,0.07427 -0.00464,0.1073c-0.00427,0.23676 -0.01134,0.47351 -0.012,0.71027c-0.00063,0.22815 0.00464,0.45632 0.00928,0.68446c0.00066,0.03227 0.01247,0.06437 0.02076,0.10358c0.00553,0.01562 0.00942,0.02421 0.01332,0.0328c0.00005,0.03084 0.0001,0.06169 -0.00232,0.09915c-0.00357,0.01269 -0.00465,0.01876 -0.00573,0.02483c-0.04505,0.14267 -0.14433,0.25277 -0.27329,0.35204c-0.00775,0.00719 -0.01026,0.01051 -0.01278,0.01384c-0.17052,0.12091 -0.35944,0.21365 -0.56475,0.27855c-0.12376,0.03912 -0.25079,0.07022 -0.37686,0.10345c-0.02025,0.00534 -0.04486,0.00801 -0.06434,0.00281c-0.02406,-0.00643 -0.05518,-0.01819 -0.06413,-0.0354c-0.00882,-0.01698 -0.00196,-0.04949 0.01226,-0.06501c0.05325,-0.05813 0.1123,-0.11212 0.16926,-0.1676c0.00928,-0.00903 0.02059,-0.01678 0.02817,-0.02677c0.0232,-0.03058 0.01511,-0.0531 -0.02839,-0.05014c-0.11564,0.00786 -0.23119,0.01783 -0.34625,0.03062c-0.05225,0.00581 -0.10305,0.02118 -0.15491,0.03049c-0.03789,0.0068 -0.06725,-0.00701 -0.08102,-0.0386c-0.01507,-0.03455 0.01344,-0.04942 0.04209,-0.06431c0.14597,-0.07591 0.29155,-0.15243 0.43707,-0.22902c0.01147,-0.00604 0.02147,-0.01425 0.04534,-0.03035c-0.08854,0 -0.16285,-0.00201 -0.23694,0.00075c-0.04509,0.00167 -0.09026,0.01658 -0.13458,0.01412c-0.02554,-0.00142 -0.05718,-0.02142 -0.07093,-0.04125c-0.00712,-0.01026 0.01389,-0.04284 0.0309,-0.05739c0.02492,-0.0213 0.05765,-0.03547 0.09401,-0.05507c0.01328,-0.00707 0.0196,-0.01175 0.02592,-0.01643c0.00554,-0.0015 0.01107,-0.003 0.02242,-0.00624c0.01135,-0.00554 0.01688,-0.00934 0.02242,-0.01315c0.09228,-0.0334 0.18455,-0.0668 0.2845,-0.1016c0.01311,-0.00537 0.01855,-0.00935 0.02399,-0.01333c0.06758,-0.01413 0.13516,-0.02827 0.21087,-0.0432c0.01418,-0.0036 0.02022,-0.0064 0.02626,-0.0092c0.02413,-0.0031 0.04825,-0.00621 0.08103,-0.01038c0.01261,-0.00427 0.01657,-0.00747 0.02052,-0.01066c0.0497,-0.00266 0.09941,-0.00532 0.15875,-0.00858c0.03442,-0.00412 0.0592,-0.00764 0.08398,-0.01115c0.05512,-0.00079 0.11024,-0.00158 0.17512,-0.005c0.00773,-0.01751 0.00569,-0.03239 0.00366,-0.04727c-0.00334,-0.03375 -0.00668,-0.06749 -0.01089,-0.10887c-0.00462,-0.01609 -0.00837,-0.02456 -0.01213,-0.03302c-0.0031,-0.02508 -0.00619,-0.05017 -0.01032,-0.08224c-0.00414,-0.01238 -0.00725,-0.01776 -0.01036,-0.02314c-0.00445,-0.03521 -0.00891,-0.07042 -0.01447,-0.11266c-0.00399,-0.01249 -0.00689,-0.01796 -0.00978,-0.02342c-0.00189,-0.0244 -0.00377,-0.0488 -0.0062,-0.08143c-0.00637,-0.03069 -0.01219,-0.05316 -0.01801,-0.07563c-0.00156,-0.03132 -0.00311,-0.06264 -0.00499,-0.10145c-0.00277,-0.01301 -0.00522,-0.01853 -0.00768,-0.02406c-0.00462,-0.05579 -0.00924,-0.11157 -0.01419,-0.17545c-0.00321,-0.01681 -0.00608,-0.02552 -0.00896,-0.03424c-0.00432,-0.08019 -0.00864,-0.16037 -0.01305,-0.2498c-0.00362,-0.03816 -0.00715,-0.06709 -0.01068,-0.09601c-0.00054,-0.12859 -0.00109,-0.25718 -0.00143,-0.3906m-0.11467,2.13283c-0.05359,0.0243 -0.10722,0.04851 -0.16074,0.07292c-0.0389,0.01774 -0.0796,0.03322 -0.11543,0.05495c-0.01307,0.00792 -0.0144,0.03097 -0.02108,0.04711c0.01783,0.00088 0.03873,0.00754 0.05299,0.00166c0.07238,-0.02986 0.1474,-0.05722 0.2133,-0.09626c0.1054,-0.06245 0.20511,-0.13255 0.30521,-0.20169c0.0151,-0.01043 0.01932,-0.03317 0.02857,-0.05021c-0.00552,-0.0029 -0.01104,-0.0058 -0.01655,-0.0087c-0.09281,0.05898 -0.18562,0.11797 -0.28625,0.18022z" fill="#CD5F4C"/>
  <path stroke="null" id="svg_6" d="m1.36063,0.74336c0.08549,0.01459 0.17328,0.01882 0.24774,0.04887c0.18937,0.07641 0.24624,0.22816 0.25926,0.39825c0.00172,0.02251 -0.0002,0.04524 -0.00737,0.07153c-0.04656,-0.00334 -0.08643,-0.01728 -0.12578,-0.0162c-0.1971,0.00542 -0.37688,0.06074 -0.53647,0.16246c-0.10495,0.0669 -0.20427,0.14066 -0.30825,0.20879c-0.05473,0.03586 -0.11432,0.06591 -0.17127,0.09918c-0.11986,0.07003 -0.24933,0.12004 -0.38994,0.14695c-0.03846,0.00736 -0.07711,0.01392 -0.11567,0.02085c-0.00523,-0.10141 0.05894,-0.17311 0.14271,-0.22662c0.26185,-0.16726 0.46322,-0.3852 0.66551,-0.60298c0.04617,-0.0497 0.09291,-0.09899 0.14423,-0.15267c0.01371,-0.01427 0.02257,-0.02433 0.03143,-0.0344c0.05337,-0.04087 0.10674,-0.08174 0.16387,-0.12401m-0.21627,0.41426c0.02333,0.03317 0.05341,0.02661 0.0786,0.00553c0.03099,-0.02593 0.05876,-0.05531 0.08429,-0.08559c0.00681,-0.00807 0.00563,-0.02818 -0.00133,-0.03683c-0.00877,-0.0109 -0.02749,-0.02241 -0.04145,-0.02198c-0.05406,0.00166 -0.12525,0.07979 -0.1201,0.13887z" fill="#CD5F4C"/>
  <path stroke="null" id="svg_7" d="m1.86313,1.29689c-0.02914,0.13862 -0.05769,0.27734 -0.08834,0.4157c-0.00307,0.01388 -0.01885,0.02556 -0.03041,0.0416c-0.00517,0.0027 -0.00828,0.00339 -0.01647,0.0077c-0.01132,0.00677 -0.01717,0.01124 -0.02303,0.01572c-0.0711,0.0203 -0.1422,0.04061 -0.22116,0.06187c-0.01372,0.00411 -0.01958,0.00726 -0.02544,0.01041c-0.13096,0.00284 -0.26192,0.00569 -0.4016,0.00893c-0.01846,0.00357 -0.0282,0.00674 -0.03795,0.0099c-0.02443,0.00316 -0.04885,0.00631 -0.081,0.01084c-0.01362,0.00461 -0.0195,0.00786 -0.02539,0.0111c-0.07066,0.01691 -0.14128,0.03397 -0.21202,0.05062c-0.02051,0.00483 -0.04137,0.00848 -0.07009,0.01356c-0.01404,0.00373 -0.02005,0.00659 -0.02607,0.00945c-0.03221,0.00294 -0.06442,0.00587 -0.10642,0.00955c-0.04172,0.00141 -0.07365,0.00207 -0.10558,0.00273c-0.02456,-0.00315 -0.04911,-0.00629 -0.07993,-0.01255c-0.01308,-0.00484 -0.01991,-0.00656 -0.02673,-0.00828c-0.01697,-0.01399 -0.03394,-0.02798 -0.047,-0.04633c0.06751,-0.01026 0.13265,-0.02663 0.19437,-0.01957c0.08981,0.01026 0.16607,-0.023 0.23075,-0.05824c0.15959,-0.08696 0.31357,-0.1838 0.45972,-0.28773c0.19736,-0.14035 0.41343,-0.22591 0.66944,-0.22672c0.02347,-0.00007 0.04689,-0.0132 0.07034,-0.02027z" fill="#CD5F4C"/>
  <path stroke="null" id="svg_8" d="m11.03267,8.1897c-0.05323,0.00398 -0.10274,0.00724 -0.15203,0.01217c-0.09532,0.00954 -0.19027,0.02302 -0.28584,0.02933c-0.10584,0.00699 -0.2126,0.0145 -0.31825,0.00968c-0.15636,-0.00714 -0.31216,-0.02435 -0.46805,-0.0385c-0.0662,-0.00601 -0.13211,-0.01477 -0.19802,-0.02307c-0.01739,-0.00219 -0.03435,-0.00717 -0.05142,-0.01114c-0.03916,-0.00912 -0.06092,-0.03392 -0.04471,-0.0655c0.00911,-0.01775 0.04381,-0.03749 0.06518,-0.03602c0.11119,0.00768 0.22179,0.02196 0.33262,0.03379c0.02138,0.00228 0.04285,0.00555 0.06429,0.00562c0.154,0.0005 0.30821,0.00469 0.46195,-0.001c0.13492,-0.00499 0.26971,-0.01851 0.40383,-0.03334c0.15341,-0.01696 0.3061,-0.03916 0.45896,-0.05983c0.0619,-0.00837 0.1232,-0.02043 0.18526,-0.02742c0.0277,-0.00312 0.05662,0.00213 0.08498,0.00358c0.00092,0.00619 0.00183,0.01238 0.00275,0.01857c-0.05889,0.0307 -0.11777,0.0614 -0.17751,0.09565c-0.00595,0.00361 -0.01105,0.00366 -0.0222,0.00126c-0.02038,0.00294 -0.03472,0.00831 -0.04905,0.01369c-0.01304,0.00321 -0.02609,0.00642 -0.04726,0.00994c-0.01733,0.00391 -0.02654,0.0075 -0.03575,0.01109c-0.01677,0.00342 -0.03353,0.00685 -0.05825,0.0105c-0.01355,0.00362 -0.01916,0.00702 -0.02476,0.01042c-0.01683,0.00317 -0.03366,0.00635 -0.05925,0.00988c-0.02196,0.00706 -0.03515,0.01376 -0.04835,0.02047c-0.0051,0.00007 -0.0102,0.00015 -0.01913,0.00018z" fill="#E7DADB"/>
  <path stroke="null" id="svg_9" d="m1.86424,1.29306c-0.02455,0.0109 -0.04797,0.02402 -0.07145,0.0241c-0.25601,0.00081 -0.47208,0.08636 -0.66944,0.22672c-0.14615,0.10393 -0.30012,0.20077 -0.45972,0.28773c-0.06469,0.03524 -0.14094,0.0685 -0.23075,0.05824c-0.06171,-0.00705 -0.12685,0.00932 -0.19522,0.01602c-0.01126,-0.00471 -0.01777,-0.01021 -0.02453,-0.01877c0.03831,-0.00998 0.07696,-0.01654 0.11541,-0.0239c0.14061,-0.02691 0.27007,-0.07691 0.38994,-0.14695c0.05695,-0.03327 0.11654,-0.06332 0.17127,-0.09918c0.10398,-0.06813 0.2033,-0.14189 0.30825,-0.20879c0.15958,-0.10172 0.33936,-0.15704 0.53647,-0.16246c0.03934,-0.00108 0.07922,0.01285 0.12373,0.0199c0.00564,0.00786 0.00639,0.01568 0.00603,0.02734z" fill="#BF5041"/>
  <path stroke="null" id="svg_10" d="m10.77812,6.38595c-0.05245,-0.02845 -0.10686,-0.0583 -0.15703,-0.09297c-0.29301,-0.20246 -0.59955,-0.38574 -0.93674,-0.52702c-0.12873,-0.05394 -0.25546,-0.11161 -0.38487,-0.17094c0.0565,0.01521 0.11799,0.02831 0.17247,0.05333c0.21321,0.09793 0.4277,0.19433 0.63509,0.30131c0.23979,0.1237 0.46466,0.26752 0.67108,0.43628z" fill="#E7DADB"/>
  <path stroke="null" id="svg_11" d="m5.89105,4.54288c-0.01771,0.00618 -0.03861,0.01128 -0.05952,0.01132c-0.25086,0.00051 -0.50172,0.00071 -0.75257,-0.00023c-0.04021,-0.00015 -0.07206,0.00431 -0.09392,0.04007c-0.0078,0.01276 -0.03564,0.01595 -0.05893,0.02346c0.01416,-0.01865 0.03291,-0.03725 0.05344,-0.05907c0.03553,-0.01024 0.06897,-0.02147 0.1031,-0.0235c0.09385,-0.00558 0.18806,-0.01097 0.28202,-0.00975c0.17443,0.00225 0.34878,0.00924 0.52636,0.0177z" fill="#E7DADB"/>
  <path stroke="null" id="svg_12" d="m9.27458,5.58529c-0.01643,-0.00223 -0.03414,-0.00776 -0.05955,-0.01542c-0.11167,-0.04604 -0.21554,-0.09014 -0.31966,-0.13376c-0.05984,-0.02506 -0.12009,-0.04934 -0.18016,-0.07397c0.02302,-0.01519 0.04737,-0.02905 0.06875,-0.04586c0.03588,-0.02821 0.06986,-0.05831 0.10838,-0.08905c-0.00123,0.01441 -0.00061,0.03555 -0.01222,0.04514c-0.03876,0.03202 -0.0819,0.0599 -0.12331,0.08933c0.13516,0.05275 0.27036,0.10411 0.40397,0.15851c0.0398,0.01621 0.07515,0.04095 0.11381,0.06508z" fill="#E7DADB"/>
  <path stroke="null" id="svg_13" d="m8.89919,5.1703c-0.09799,-0.10235 -0.22972,-0.15835 -0.36592,-0.20805c-0.0911,-0.03324 -0.18273,-0.06538 -0.27659,-0.10111c0.05918,0.01168 0.12265,0.02226 0.18208,0.0422c0.09459,0.03174 0.18957,0.06465 0.27849,0.10677c0.06312,0.0299 0.11755,0.07471 0.17334,0.11555c0.01004,0.00735 0.00787,0.02771 0.0086,0.04465z" fill="#E7DADB"/>
  <path stroke="null" id="svg_14" d="m6.77135,4.60193c-0.11291,-0.00639 -0.2273,-0.01655 -0.3436,-0.03036c0.11277,0.00643 0.22744,0.0165 0.3436,0.03036z" fill="#E7DADB"/>
  <path stroke="null" id="svg_15" d="m6.36562,4.56411c-0.08974,0.00068 -0.18247,-0.00192 -0.27822,-0.00796c0.08973,-0.00073 0.18248,0.00197 0.27822,0.00796z" fill="#E7DADB"/>
  <path stroke="null" id="svg_16" d="m7.7087,4.73769c-0.09368,-0.0133 -0.18862,-0.03032 -0.2853,-0.05077c0.08693,0.00729 0.17568,0.01763 0.26419,0.02939c0.00745,0.00099 0.01328,0.01154 0.02112,0.02138z" fill="#E7DADB"/>
  <path stroke="null" id="svg_17" d="m11.21628,6.71088c-0.10029,-0.03699 -0.21299,-0.0631 -0.2575,-0.17257c0.00703,-0.00146 0.0187,-0.00079 0.02074,0.00349c0.04293,0.08951 0.14672,0.1079 0.22731,0.1533c0.00433,0.00244 0.00644,0.00797 0.00945,0.01578z" fill="#E7DADB"/>
  <path stroke="null" id="svg_18" d="m10.95819,6.53068c-0.05925,-0.04215 -0.1187,-0.088 -0.17889,-0.1373c0.05907,0.04224 0.11888,0.08791 0.17889,0.1373z" fill="#E7DADB"/>
  <path stroke="null" id="svg_19" d="m11.41345,7.13213c0.03582,-0.05459 0.06876,-0.11144 0.05612,-0.185c0.00789,0.02394 0.0149,0.05269 0.02194,0.08606c-0.02465,0.0359 -0.04934,0.06718 -0.07806,0.09894z" fill="#E7DADB"/>
  <path stroke="null" id="svg_20" d="m8.23079,4.85234c-0.06614,-0.01328 -0.13355,-0.03013 -0.2026,-0.05036c0.06601,0.01335 0.13368,0.03007 0.2026,0.05036z" fill="#E7DADB"/>
  <path stroke="null" id="svg_21" d="m6.94952,4.62248c-0.04827,-0.00097 -0.09799,-0.00552 -0.15076,-0.01321c0.04944,-0.0148 0.10181,-0.02531 0.15076,0.01321z" fill="#E7DADB"/>
  <path stroke="null" id="svg_22" d="m11.45423,6.88883c-0.03828,-0.02939 -0.07604,-0.0627 -0.11526,-0.09926c0.0588,0.00995 0.09513,0.04537 0.11526,0.09926z" fill="#E7DADB"/>
  <path stroke="null" id="svg_23" d="m7.11593,4.64309c-0.0407,-0.00086 -0.08273,-0.00541 -0.12758,-0.01314c0.04204,-0.01364 0.08719,-0.0264 0.12758,0.01314z" fill="#E7DADB"/>
  <path stroke="null" id="svg_24" d="m7.25552,4.65901c-0.0314,0.00052 -0.06514,-0.00238 -0.10144,-0.00849c0.03133,-0.00045 0.06521,0.00231 0.10144,0.00849z" fill="#E7DADB"/>
  <path stroke="null" id="svg_25" d="m7.58158,10.48366c-0.00391,-0.03232 -0.00307,-0.06535 0.00051,-0.10194c0.00324,0.03137 0.00374,0.0663 -0.00051,0.10194z" fill="#F8F1F2"/>
  <path stroke="null" id="svg_26" d="m5.6241,10.22175c-0.00374,-0.03246 -0.00262,-0.06554 0.00156,-0.10199c0.00314,0.03154 0.00322,0.06646 -0.00156,0.10199z" fill="#F8F1F2"/>
  <path stroke="null" id="svg_27" d="m5.09887,11.70075c-0.03363,0.00752 -0.07003,0.01111 -0.11161,0.01413c0.02472,-0.04768 0.06881,-0.02251 0.11161,-0.01413z" fill="#F8F1F2"/>
  <path stroke="null" id="svg_28" d="m5.60883,10.94456c-0.00616,-0.03116 -0.00789,-0.06477 -0.00702,-0.10192c0.00555,0.0308 0.0085,0.06513 0.00702,0.10192z" fill="#F8F1F2"/>
  <path stroke="null" id="svg_29" d="m5.64831,11.96082c-0.00525,-0.0276 -0.00573,-0.05583 -0.00537,-0.08873c0.04742,0.02285 0.03035,0.05535 0.00537,0.08873z" fill="#F8F1F2"/>
  <path stroke="null" id="svg_30" d="m7.81555,4.75876c-0.02516,-0.00081 -0.05152,-0.00519 -0.08049,-0.01267c0.02824,-0.01766 0.05716,-0.02205 0.08049,0.01267z" fill="#E7DADB"/>
  <path stroke="null" id="svg_31" d="m7.3857,4.67931c-0.02859,-0.00122 -0.05985,-0.00562 -0.09287,-0.01328c0.0289,0.00119 0.05955,0.00565 0.09287,0.01328z" fill="#E7DADB"/>
  <path stroke="null" id="svg_32" d="m0.39293,1.98078c0.03117,-0.00487 0.0631,-0.00553 0.1003,-0.0055c-0.0253,0.04333 -0.06235,0.02717 -0.1003,0.0055z" fill="#F8F1F2"/>
  <path stroke="null" id="svg_33" d="m7.03343,10.59004c0.0079,0.02651 0.01143,0.05544 0.0138,0.08886c-0.04976,-0.01955 -0.02215,-0.05472 -0.0138,-0.08886z" fill="#F8F1F2"/>
  <path stroke="null" id="svg_34" d="m11.33685,6.78254c-0.02702,-0.01091 -0.05453,-0.02544 -0.08295,-0.04346c0.02688,0.01095 0.05467,0.02539 0.08295,0.04346z" fill="#E7DADB"/>
  <path stroke="null" id="svg_35" d="m7.0081,11.85754c-0.02216,0.00728 -0.04694,0.0108 -0.07659,0.01381c0.01113,-0.04325 0.04429,-0.02415 0.07659,-0.01381z" fill="#F8F1F2"/>
  <path stroke="null" id="svg_36" d="m7.91053,4.77915c-0.02119,-0.00108 -0.04382,-0.00538 -0.06887,-0.01289c0.02086,0.00109 0.04415,0.00538 0.06887,0.01289z" fill="#E7DADB"/>
  <path stroke="null" id="svg_37" d="m7.09328,11.27062c0.00989,0.02049 0.01571,0.04295 0.02043,0.06926c-0.0089,-0.01987 -0.0167,-0.04357 -0.02043,-0.06926z" fill="#F8F1F2"/>
  <path stroke="null" id="svg_38" d="m7.99135,4.79366c-0.01656,0.00098 -0.03492,-0.00131 -0.05527,-0.00667c0.0165,-0.00091 0.03498,0.00125 0.05527,0.00667z" fill="#E7DADB"/>
  <path stroke="null" id="svg_39" d="m5.0834,9.69946c0.00399,0.01518 0.00363,0.03105 0.0006,0.05008c-0.00343,-0.01436 -0.00419,-0.03188 -0.0006,-0.05008z" fill="#F8F1F2"/>
  <path stroke="null" id="svg_40" d="m5.0771,10.53736c0.00673,0.01334 0.00938,0.0287 0.01105,0.04799c-0.0057,-0.0127 -0.01042,-0.02934 -0.01105,-0.04799z" fill="#F8F1F2"/>
  <path stroke="null" id="svg_41" d="m11.32759,8.11971c0.01215,-0.00785 0.02648,-0.01323 0.04303,-0.01617c-0.01214,0.00784 -0.02649,0.01324 -0.04303,0.01617z" fill="#F8F1F2"/>
  <path stroke="null" id="svg_42" d="m11.05631,8.18976c0.00868,-0.00694 0.02187,-0.01365 0.03953,-0.02018c-0.0087,0.00692 -0.02186,0.01367 -0.03953,0.02018z" fill="#F8F1F2"/>
  <path stroke="null" id="svg_43" d="m4.00944,12.11132c0.01206,-0.00424 0.0247,-0.00475 0.04202,-0.00452c-0.00492,0.03092 -0.02105,0.0298 -0.04202,0.00452z" fill="#F8F1F2"/>
  <path stroke="null" id="svg_44" d="m5.13612,11.15548c0.00761,0.00985 0.01128,0.02169 0.01423,0.03731c-0.00654,-0.00925 -0.01236,-0.02228 -0.01423,-0.03731z" fill="#F8F1F2"/>
  <path stroke="null" id="svg_45" d="m5.60847,11.17548c-0.00576,-0.01123 -0.00738,-0.02442 -0.00658,-0.04031c0.00518,0.01098 0.00795,0.02466 0.00658,0.04031z" fill="#F8F1F2"/>
  <path stroke="null" id="svg_46" d="m7.16287,11.66899c0.00737,0.00662 0.01112,0.01509 0.01405,0.02707c-0.00644,-0.00606 -0.01206,-0.01565 -0.01405,-0.02707z" fill="#F8F1F2"/>
  <path stroke="null" id="svg_47" d="m5.16061,11.30169c0.00786,0.01043 0.01199,0.0224 0.01533,0.03822c-0.00688,-0.00966 -0.01297,-0.02317 -0.01533,-0.03822z" fill="#F8F1F2"/>
  <path stroke="null" id="svg_48" d="m5.1132,10.97699c0.0068,0.00705 0.00977,0.01577 0.01156,0.02788c-0.00592,-0.00648 -0.01066,-0.01635 -0.01156,-0.02788z" fill="#F8F1F2"/>
  <path stroke="null" id="svg_49" d="m7.05771,10.93509c0.0067,0.00707 0.00958,0.01578 0.01131,0.02791c-0.00581,-0.00648 -0.01047,-0.01637 -0.01131,-0.02791z" fill="#F8F1F2"/>
  <path stroke="null" id="svg_50" d="m4.83853,11.72158c-0.00761,0.00658 -0.01725,0.00976 -0.03084,0.01243c0.00697,-0.00562 0.01789,-0.01073 0.03084,-0.01243z" fill="#F8F1F2"/>
  <path stroke="null" id="svg_51" d="m5.10062,10.83047c0.00631,0.00709 0.00892,0.01582 0.01027,0.02791c-0.0055,-0.00652 -0.00973,-0.0164 -0.01027,-0.02791z" fill="#F8F1F2"/>
  <path stroke="null" id="svg_52" d="m3.95449,12.03534c0.00407,0.0074 0.00457,0.01543 0.00388,0.02738c-0.00328,-0.00631 -0.00537,-0.01653 -0.00388,-0.02738z" fill="#F8F1F2"/>
  <path stroke="null" id="svg_53" d="m4.1629,12.09615c0.00821,-0.00552 0.01819,-0.00764 0.03199,-0.00857c-0.00753,0.00478 -0.01887,0.00838 -0.03199,0.00857z" fill="#F8F1F2"/>
  <path stroke="null" id="svg_54" d="m4.34261,12.08901c0.0141,-0.00136 0.0302,0.00036 0.0463,0.00207c-0.00404,0.00647 -0.00807,0.01295 -0.01685,0.02023c-0.01231,-0.00587 -0.01988,-0.01255 -0.02944,-0.02229z" fill="#F8F1F2"/>
  <path stroke="null" id="svg_55" d="m1.02072,1.87215c0.00777,-0.00659 0.01751,-0.00975 0.03123,-0.01195c-0.0071,0.00577 -0.01818,0.01057 -0.03123,0.01195z" fill="#F8F1F2"/>
  <path stroke="null" id="svg_56" d="m11.25243,6.73148c-0.01091,-0.00073 -0.02193,-0.00522 -0.03409,-0.01292c0.01057,0.00091 0.02227,0.00504 0.03409,0.01292z" fill="#E7DADB"/>
  <path stroke="null" id="svg_57" d="m11.24479,8.14085c0.00682,-0.00619 0.01602,-0.00978 0.02929,-0.01323c-0.00626,0.00537 -0.01658,0.01059 -0.02929,0.01323z" fill="#F8F1F2"/>
  <path stroke="null" id="svg_58" d="m1.19247,0.86742c-0.00457,0.01002 -0.01343,0.02008 -0.02589,0.03101c0.0048,-0.00975 0.0132,-0.02035 0.02589,-0.03101z" fill="#F8F1F2"/>
  <path stroke="null" id="svg_59" d="m7.61191,12.01406c-0.00763,-0.00715 -0.01152,-0.01574 -0.01474,-0.02792c0.00661,0.00644 0.01254,0.01646 0.01474,0.02792z" fill="#F8F1F2"/>
  <path stroke="null" id="svg_60" d="m4.07861,11.95004c-0.00305,0.00685 -0.00819,0.01092 -0.01689,0.01536c0.00256,-0.0058 0.00868,-0.01197 0.01689,-0.01536z" fill="#F8F1F2"/>
  <path stroke="null" id="svg_61" d="m0.60585,1.96721c0.00434,-0.00577 0.01036,-0.00863 0.01988,-0.01077c-0.00373,0.00504 -0.01097,0.00936 -0.01988,0.01077z" fill="#F8F1F2"/>
  <path stroke="null" id="svg_62" d="m6.42734,11.95144c-0.00348,0.00702 -0.00892,0.011 -0.018,0.01497c0.00292,-0.00601 0.00948,-0.01201 0.018,-0.01497z" fill="#F8F1F2"/>
  <path stroke="null" id="svg_63" d="m5.20807,11.55294c0.00643,0.00402 0.00937,0.00943 0.01146,0.01791c-0.00555,-0.00346 -0.01025,-0.00999 -0.01146,-0.01791z" fill="#F8F1F2"/>
  <path stroke="null" id="svg_64" d="m6.11887,12.06643c-0.0036,0.00678 -0.00913,0.01058 -0.01829,0.0144c0.00303,-0.00578 0.00969,-0.01158 0.01829,-0.0144z" fill="#F8F1F2"/>
  <path stroke="null" id="svg_65" d="m6.66477,11.89915c-0.00438,0.00574 -0.01042,0.00854 -0.01998,0.01062c0.00376,-0.005 0.01104,-0.00928 0.01998,-0.01062z" fill="#F8F1F2"/>
  <path stroke="null" id="svg_66" d="m0.2857,1.95899c0.00664,-0.00152 0.01346,0.0002 0.02195,0.00484c-0.00614,0.00141 -0.01395,-0.00009 -0.02195,-0.00484z" fill="#F8F1F2"/>
  <path stroke="null" id="svg_67" d="m7.60402,12.13927c-0.00282,-0.00587 -0.00173,-0.01194 0.00213,-0.01999c0.00244,0.00527 0.00211,0.01253 -0.00213,0.01999z" fill="#F8F1F2"/>
  <path stroke="null" id="svg_68" d="m7.18868,11.81376c0.00285,0.01016 0.00488,0.02504 0.00248,0.04114c-0.00406,-0.01133 -0.00368,-0.02388 -0.00248,-0.04114z" fill="#F8F1F2"/>
  <path stroke="null" id="svg_69" d="m0.91413,1.89367c0.00411,-0.00625 0.00999,-0.00949 0.01947,-0.01231c-0.0035,0.00539 -0.0106,0.01035 -0.01947,0.01231z" fill="#F8F1F2"/>
  <path stroke="null" id="svg_70" d="m11.16144,8.1615c0.00356,-0.00572 0.00917,-0.00912 0.01837,-0.01253c-0.00304,0.00495 -0.00969,0.0099 -0.01837,0.01253z" fill="#F8F1F2"/>
  <path stroke="null" id="svg_71" d="m1.46004,1.85271c0.00411,-0.00597 0.00997,-0.00912 0.01939,-0.01164c-0.00351,0.00524 -0.01058,0.00985 -0.01939,0.01164z" fill="#F8F1F2"/>
  <path stroke="null" id="svg_72" d="m4.47133,11.79573c-0.00369,0.00657 -0.00921,0.00986 -0.01812,0.01346c0.00317,-0.00537 0.00973,-0.01105 0.01812,-0.01346z" fill="#F8F1F2"/>
  <path stroke="null" id="svg_73" d="m7.08132,11.14443c0.00581,0.00423 0.00826,0.00975 0.00948,0.01822c-0.0051,-0.00368 -0.00897,-0.0103 -0.00948,-0.01822z" fill="#F8F1F2"/>
  <path stroke="null" id="svg_74" d="m7.11795,11.42706c0.0065,0.00409 0.0094,0.00955 0.01142,0.01807c-0.00559,-0.00353 -0.01031,-0.01012 -0.01142,-0.01807z" fill="#F8F1F2"/>
  <path stroke="null" id="svg_75" d="m5.18564,11.43737c0.00668,0.00409 0.0096,0.00952 0.01183,0.01804c-0.00565,-0.00351 -0.01062,-0.0101 -0.01183,-0.01804z" fill="#F8F1F2"/>
  <path stroke="null" id="svg_76" d="m7.14207,11.56315c0.00684,0.004 0.00995,0.00939 0.01237,0.01786c-0.00583,-0.00343 -0.01097,-0.00996 -0.01237,-0.01786z" fill="#F8F1F2"/>
  <path stroke="null" id="svg_77" d="m4.70825,11.74236c-0.00432,0.00588 -0.01031,0.00874 -0.01985,0.01106c0.0037,-0.00505 0.01093,-0.00957 0.01985,-0.01106z" fill="#F8F1F2"/>
  <path stroke="null" id="svg_78" d="m4.61305,11.76257c-0.00413,0.00612 -0.01002,0.00932 -0.0195,0.01191c0.00352,-0.00535 0.01063,-0.01009 0.0195,-0.01191z" fill="#F8F1F2"/>
  <path stroke="null" id="svg_79" d="m4.53505,11.77661c-0.00367,0.00694 -0.01183,0.01256 -0.02409,0.01769c0.0038,-0.00666 0.0117,-0.01283 0.02409,-0.01769z" fill="#F8F1F2"/>
  <path stroke="null" id="svg_80" d="m1.70928,1.77781c0.00147,-0.00468 0.00732,-0.00915 0.01712,-0.01419c-0.00162,0.00442 -0.00717,0.00941 -0.01712,0.01419z" fill="#F8F1F2"/>
  <path stroke="null" id="svg_81" d="m6.07152,12.08854c-0.00187,0.00493 -0.00819,0.00961 -0.0188,0.01417c0.00192,-0.00488 0.00813,-0.00965 0.0188,-0.01417z" fill="#F8F1F2"/>
  <path stroke="null" id="svg_82" d="m6.7638,11.88089c0.00023,0.00335 -0.00373,0.00655 -0.01187,0.00962c-0.00023,-0.00334 0.00373,-0.00656 0.01187,-0.00962z" fill="#F8F1F2"/>
  <path stroke="null" id="svg_83" d="m7.3175,12.50462c-0.00093,-0.0026 0.00159,-0.00592 0.00744,-0.01008c0.0009,0.00256 -0.00155,0.00596 -0.00744,0.01008z" fill="#F8F1F2"/>
  <path stroke="null" id="svg_84" d="m10.63785,7.32086c-0.07664,-0.01394 -0.15321,-0.02822 -0.22994,-0.04174c-0.07484,-0.01319 -0.15008,-0.02464 -0.22473,-0.03856c-0.17259,-0.03218 -0.34566,-0.06271 -0.51716,-0.09898c-0.15727,-0.03326 -0.31275,-0.07309 -0.46898,-0.11015c-0.08343,-0.01979 -0.16805,-0.03648 -0.24995,-0.06039c-0.2558,-0.07467 -0.51282,-0.14678 -0.76494,-0.23031c-0.17376,-0.05757 -0.34175,-0.12954 -0.50946,-0.20034c-0.18158,-0.07666 -0.36186,-0.15615 -0.53876,-0.24084c-0.0995,-0.04763 -0.19207,-0.1069 -0.28592,-0.16332c-0.13761,-0.08272 -0.27621,-0.16443 -0.40965,-0.2522c-0.25183,-0.16564 -0.48219,-0.35115 -0.65728,-0.58458c-0.01193,-0.01591 -0.02117,-0.0334 -0.03314,-0.04929c-0.01915,-0.0254 -0.02074,-0.04696 0.01038,-0.06675c0.03326,-0.02115 0.05516,-0.00528 0.07587,0.01569c0.08015,0.08111 0.1529,0.16919 0.24168,0.24206c0.12154,0.09975 0.25171,0.19207 0.38457,0.28005c0.13475,0.08923 0.27561,0.17155 0.41684,0.25275c0.13292,0.07642 0.26837,0.14962 0.40539,0.22016c0.12168,0.06265 0.24487,0.12365 0.37133,0.17825c0.15631,0.06749 0.31544,0.13024 0.47565,0.19024c0.18488,0.06924 0.36968,0.13985 0.55922,0.19789c0.24602,0.07534 0.49465,0.1454 0.74581,0.20588c0.34789,0.08377 0.69902,0.15708 1.04914,0.23354c0.07953,0.01737 0.16034,0.03046 0.24105,0.04315c0.03357,0.00528 0.04935,0.01783 0.04337,0.05534c0.00014,0.00701 0.00077,0.01221 0.00077,0.01221c-0.00221,0.00286 -0.00486,0.00537 -0.01398,0.009c-0.01149,0.00512 -0.01693,0.00875 -0.02238,0.01238c-0.00898,-0.00022 -0.01797,-0.00043 -0.03428,-0.00346c-0.02506,-0.00443 -0.04279,-0.00604 -0.06052,-0.00765z" fill="#B7B193"/>
  <path stroke="null" id="svg_85" d="m2.39709,0.92886c-0.03127,-0.06528 -0.06327,-0.12741 -0.08455,-0.19228c-0.00511,-0.01558 0.02237,-0.04313 0.04153,-0.0588c0.00486,-0.00398 0.04153,0.01251 0.05289,0.02642c0.0365,0.0447 0.07359,0.09037 0.09893,0.14023c0.01165,0.02293 0.00676,0.06234 -0.00893,0.08387c-0.02323,0.03188 -0.06318,0.02868 -0.09987,0.00056z" fill="#212423"/>
  <path stroke="null" id="svg_86" d="m4.89172,4.74423c0.0008,0.0611 -0.00611,0.12347 -0.00539,0.18577c0.00126,0.10948 0.00718,0.21892 0.01038,0.33324c-0.01176,-0.03337 -0.03199,-0.07161 -0.03206,-0.10987c-0.00025,-0.13039 0.00646,-0.26078 0.01124,-0.39116c0.00021,-0.00568 0.00755,-0.01117 0.01584,-0.01799z" fill="#E7DADB"/>
  <path stroke="null" id="svg_87" d="m7.05638,7.70417c0.16714,0.02528 0.33536,0.05417 0.50654,0.0863c-0.04648,0.00263 -0.09718,0.00805 -0.1451,0.00021c-0.11612,-0.01899 -0.23098,-0.04397 -0.34614,-0.06737c-0.00578,-0.00118 -0.00953,-0.01018 -0.0153,-0.01915z" fill="#E7DADB"/>
  <path stroke="null" id="svg_88" d="m5.02421,5.81516c0.02284,0.03883 0.04256,0.08034 0.0627,0.1217c0.04323,0.08872 0.08667,0.17736 0.13016,0.26992c-0.01891,-0.02209 -0.04201,-0.04645 -0.05627,-0.07433c-0.04899,-0.09582 -0.09514,-0.19278 -0.14143,-0.28966c-0.00329,-0.00687 0.00109,-0.01661 0.00483,-0.02763z" fill="#E7DADB"/>
  <path stroke="null" id="svg_89" d="m8.42043,7.72497c0.11243,0.00769 0.22621,0.01878 0.33995,0.03024c0.03076,0.0031 0.06137,0.00729 0.09503,0.01435c-0.01172,0.00627 -0.02682,0.01278 -0.04103,0.0115c-0.11751,-0.01059 -0.23493,-0.02214 -0.35217,-0.03484c-0.01409,-0.00152 -0.02699,-0.0116 -0.04178,-0.02125z" fill="#E7DADB"/>
  <path stroke="null" id="svg_90" d="m10.9373,7.29867c0.04343,-0.01329 0.09273,-0.02465 0.1409,-0.03895c0.09187,-0.02727 0.18309,-0.05622 0.27889,-0.08459c-0.01381,0.01358 -0.02979,0.03091 -0.0504,0.04036c-0.11392,0.05224 -0.23518,0.08132 -0.36939,0.08318z" fill="#E7DADB"/>
  <path stroke="null" id="svg_91" d="m5.30367,6.36875c0.01175,0.00492 0.02577,0.01215 0.03373,0.02289c0.05929,0.08009 0.11737,0.16088 0.17582,0.24518c-0.00984,-0.00131 -0.02342,-0.00421 -0.0289,-0.01172c-0.06111,-0.08373 -0.12098,-0.16816 -0.18064,-0.25635z" fill="#E7DADB"/>
  <path stroke="null" id="svg_92" d="m10.63788,7.32531c0.01771,-0.00284 0.03544,-0.00123 0.05601,0.00341c-0.01652,0.01353 -0.02857,0.02084 -0.02401,0.04893c0.01228,0.0757 0.00596,0.15058 -0.07436,0.20501c0.01557,-0.05821 0.03845,-0.11642 0.0531,-0.17621c0.00582,-0.02376 -0.0066,-0.05102 -0.01074,-0.08114z" fill="#E7DADB"/>
  <path stroke="null" id="svg_93" d="m4.94019,5.54322c0.01885,0.0404 0.03575,0.08339 0.05075,0.1269c0.01299,0.03769 0.02383,0.07595 0.03518,0.11801c-0.01451,-0.01811 -0.03406,-0.03892 -0.04156,-0.06269c-0.01864,-0.05908 -0.03179,-0.11951 -0.04438,-0.18222z" fill="#E7DADB"/>
  <path stroke="null" id="svg_94" d="m9.38381,7.78032c0.00278,-0.00669 0.01094,-0.01751 0.01967,-0.01789c0.08868,-0.00382 0.17745,-0.00594 0.27,-0.0059c-0.00447,0.00649 -0.01255,0.0133 -0.02103,0.01371c-0.08763,0.00419 -0.17532,0.00734 -0.26864,0.01008z" fill="#E7DADB"/>
  <path stroke="null" id="svg_95" d="m6.46316,7.45268c0.02111,0.00628 0.04384,0.01485 0.065,0.02578c0.06136,0.0317 0.12209,0.06435 0.18401,0.10019c-0.08208,-0.03849 -0.16509,-0.08055 -0.24901,-0.12597z" fill="#E7DADB"/>
  <path stroke="null" id="svg_96" d="m5.51417,6.64479c0.05134,0.05596 0.10297,0.11564 0.15519,0.17893c-0.02257,-0.01778 -0.04841,-0.03741 -0.06831,-0.06096c-0.03099,-0.03668 -0.05795,-0.07603 -0.08689,-0.11797z" fill="#E7DADB"/>
  <path stroke="null" id="svg_97" d="m7.77125,7.79618c0.05295,-0.03799 0.10889,-0.07338 0.16866,-0.10976c-0.02508,0.07661 -0.07901,0.11268 -0.16866,0.10976z" fill="#E7DADB"/>
  <path stroke="null" id="svg_98" d="m7.94838,7.63374c-0.02295,-0.02317 -0.00675,-0.03436 0.01704,-0.02764c0.04966,0.01403 0.09714,0.03409 0.14703,0.05511c-0.0342,-0.0045 -0.06982,-0.01282 -0.10567,-0.02023c-0.01795,-0.00371 -0.03633,-0.00577 -0.0584,-0.00724z" fill="#E7DADB"/>
  <path stroke="null" id="svg_99" d="m6.72473,7.5873c0.06225,0.02123 0.12536,0.046 0.18992,0.07416c-0.06306,-0.01926 -0.13865,-0.01964 -0.18992,-0.07416z" fill="#E7DADB"/>
  <path stroke="null" id="svg_100" d="m8.20668,7.68321c0.05666,0.00771 0.11441,0.01913 0.17486,0.03363c-0.06158,0.01485 -0.11883,-0.00273 -0.17486,-0.03363z" fill="#E7DADB"/>
  <path stroke="null" id="svg_101" d="m10.4154,7.68092c0.05393,-0.03383 0.11051,-0.06537 0.17129,-0.097c-0.03356,0.06 -0.09978,0.08142 -0.17129,0.097z" fill="#E7DADB"/>
  <path stroke="null" id="svg_102" d="m5.85813,7.0116c0.04352,0.03478 0.08727,0.07338 0.13221,0.11531c-0.06005,-0.0197 -0.10435,-0.05805 -0.13221,-0.11531z" fill="#E7DADB"/>
  <path stroke="null" id="svg_103" d="m6.25006,7.32537c0.05088,0.02837 0.10234,0.06028 0.15462,0.0957c-0.0508,-0.02838 -0.10242,-0.06027 -0.15462,-0.0957z" fill="#E7DADB"/>
  <path stroke="null" id="svg_104" d="m10.11959,7.72264c0.04078,-0.00968 0.08507,-0.01652 0.13453,-0.02253c-0.03004,0.05315 -0.08445,0.02226 -0.13453,0.02253z" fill="#E7DADB"/>
  <path stroke="null" id="svg_105" d="m5.22002,6.2332c0.02676,0.03281 0.05322,0.06954 0.0797,0.11008c-0.02666,-0.03285 -0.05333,-0.0695 -0.0797,-0.11008z" fill="#E7DADB"/>
  <path stroke="null" id="svg_106" d="m4.89386,5.30201c0.01093,0.02933 0.01878,0.06152 0.02569,0.09812c-0.01022,-0.02882 -0.0195,-0.06203 -0.02569,-0.09812z" fill="#E7DADB"/>
  <path stroke="null" id="svg_107" d="m4.91707,4.61841c-0.0016,0.02898 -0.00747,0.05874 -0.01687,0.091c-0.01952,-0.03131 -0.02363,-0.0635 0.01687,-0.091z" fill="#E7DADB"/>
  <path stroke="null" id="svg_108" d="m10.77423,7.31052c-0.00521,0.00008 -0.00584,-0.00512 -0.00587,-0.00773c0.03707,-0.00493 0.07417,-0.00726 0.11486,-0.00702c-0.0322,0.0066 -0.06799,0.01064 -0.10899,0.01474z" fill="#E7DADB"/>
  <path stroke="null" id="svg_109" d="m9.94159,7.73897c0.02753,-0.00683 0.06044,-0.01314 0.09861,-0.0187c-0.02757,0.0069 -0.0604,0.01306 -0.09861,0.0187z" fill="#E7DADB"/>
  <path stroke="null" id="svg_110" d="m5.7395,6.89665c0.0233,0.01786 0.04693,0.03944 0.07085,0.06458c-0.02331,-0.01791 -0.04692,-0.03939 -0.07085,-0.06458z" fill="#E7DADB"/>
  <path stroke="null" id="svg_111" d="m6.93855,7.67019c0.02948,0.00472 0.05973,0.01313 0.09194,0.02494c-0.02908,-0.00482 -0.06013,-0.01304 -0.09194,-0.02494z" fill="#E7DADB"/>
  <path stroke="null" id="svg_112" d="m4.91758,5.44847c0.01082,0.01926 0.01866,0.04117 0.02549,0.06723c-0.01017,-0.01876 -0.01931,-0.04167 -0.02549,-0.06723z" fill="#E7DADB"/>
  <path stroke="null" id="svg_113" d="m10.30921,7.70221c0.0216,-0.00971 0.0464,-0.01688 0.07579,-0.02334c-0.00823,0.04 -0.04174,0.02975 -0.07579,0.02334z" fill="#E7DADB"/>
  <path stroke="null" id="svg_114" d="m6.00151,7.13554c0.023,0.01503 0.0463,0.0337 0.07001,0.05595c-0.02296,-0.01505 -0.04634,-0.03368 -0.07001,-0.05595z" fill="#E7DADB"/>
  <path stroke="null" id="svg_115" d="m9.8347,7.74354c0.0222,-0.00528 0.04761,-0.00786 0.07641,-0.00794c-0.02214,0.00521 -0.04767,0.00793 -0.07641,0.00794z" fill="#E7DADB"/>
  <path stroke="null" id="svg_116" d="m9.72741,7.75948c0.02012,-0.00681 0.04542,-0.01301 0.07575,-0.0186c-0.02017,0.00681 -0.04538,0.013 -0.07575,0.0186z" fill="#E7DADB"/>
  <path stroke="null" id="svg_117" d="m5.67014,6.83114c0.01883,0.01191 0.03762,0.02748 0.05623,0.04667c-0.01887,-0.01193 -0.03757,-0.02747 -0.05623,-0.04667z" fill="#E7DADB"/>
  <path stroke="null" id="svg_118" d="m9.20518,7.78312c0.01823,-0.00578 0.03919,-0.00838 0.06491,-0.01012c-0.01755,0.00501 -0.03987,0.00915 -0.06491,0.01012z" fill="#E7DADB"/>
  <path stroke="null" id="svg_119" d="m8.96587,7.77733c0.01662,-0.00304 0.03457,-0.00269 0.05586,0.00018c-0.01595,0.00275 -0.03524,0.00298 -0.05586,-0.00018z" fill="#E7DADB"/>
  <path stroke="null" id="svg_120" d="m6.13189,7.2405c0.00717,0.00119 0.01488,0.00575 0.02329,0.01359c-0.00712,-0.00122 -0.01493,-0.00572 -0.02329,-0.01359z" fill="#E7DADB"/>
  <path stroke="null" id="svg_121" d="m10.7347,7.33429c0.0034,-0.00595 0.00885,-0.00958 0.0179,-0.01328c-0.00288,0.00515 -0.00936,0.01037 -0.0179,0.01328z" fill="#E7DADB"/>
  <path stroke="null" id="svg_122" d="m6.21531,7.30281c0.00729,0.00113 0.01493,0.00575 0.02352,0.01355c-0.00709,-0.00124 -0.01513,-0.00564 -0.02352,-0.01355z" fill="#E7DADB"/>
  <path stroke="null" id="svg_123" d="m6.19103,7.2828c0.00711,0.00112 0.01483,0.00555 0.02325,0.01325c-0.00708,-0.00113 -0.01486,-0.00553 -0.02325,-0.01325z" fill="#E7DADB"/>
  <path stroke="null" id="svg_124" d="m6.08489,7.20839c0.00729,0.00114 0.01494,0.00579 0.02355,0.01361c-0.00709,-0.00125 -0.01514,-0.00568 -0.02355,-0.01361z" fill="#E7DADB"/>
  <path stroke="null" id="svg_125" d="m8.71092,5.36157c0.06435,0.0252 0.12461,0.04947 0.18445,0.07453c0.10412,0.04362 0.20799,0.08772 0.3155,0.13355c-0.00166,0.04585 -0.02123,0.0554 -0.07462,0.04575c-0.21867,-0.0395 -0.43977,-0.06853 -0.65828,-0.10862c-0.16779,-0.03078 -0.33253,-0.07429 -0.49957,-0.10854c-0.15655,-0.0321 -0.31393,-0.06132 -0.4717,-0.08841c-0.1652,-0.02836 -0.33111,-0.05355 -0.49702,-0.07853c-0.18141,-0.02731 -0.36296,-0.054 -0.54484,-0.0787c-0.14517,-0.01972 -0.29097,-0.03578 -0.43636,-0.05427c-0.01727,-0.0022 -0.03908,-0.00517 -0.04938,-0.01527c-0.01944,-0.01906 -0.04715,-0.04609 -0.04309,-0.06508c0.0038,-0.0178 0.04409,-0.04155 0.0686,-0.0418c0.11398,-0.00116 0.22823,0.00248 0.34205,0.00895c0.20746,0.0118 0.41461,0.02767 0.62202,0.0403c0.32357,0.0197 0.63888,0.08424 0.95572,0.13903c0.18389,0.0318 0.36566,0.07425 0.54668,0.11748c0.08069,0.01927 0.15718,0.05228 0.23985,0.07962z" fill="#B7B193"/>
  <path stroke="null" id="svg_126" d="m6.11176,6.5309c0.23331,0.22823 0.48726,0.43128 0.7791,0.59207c0.16056,0.08846 0.33456,0.15841 0.50508,0.23204c0.11825,0.05106 0.24068,0.09462 0.36169,0.1406c0.05146,0.01955 0.10445,0.03595 0.15587,0.05556c0.01322,0.00504 0.02315,0.0168 0.03459,0.02548c-0.00255,0.00619 -0.0051,0.01239 -0.00765,0.01858c-0.07261,-0.00573 -0.14718,-0.00403 -0.21748,-0.01853c-0.24374,-0.05026 -0.47606,-0.13101 -0.69404,-0.2384c-0.21226,-0.10457 -0.42073,-0.21715 -0.59774,-0.36676c-0.15616,-0.13199 -0.31578,-0.26235 -0.45614,-0.40686c-0.10921,-0.11244 -0.1894,-0.24662 -0.28568,-0.36918c-0.11136,-0.14176 -0.18892,-0.29865 -0.26176,-0.45688c-0.07281,-0.15816 -0.13816,-0.31918 -0.1643,-0.49032c-0.00831,-0.05439 -0.0278,-0.10739 -0.03864,-0.16158c-0.00225,-0.01124 0.01117,-0.02492 0.01737,-0.03747c0.01966,0.00908 0.05123,0.01424 0.05696,0.02789c0.02779,0.06613 0.04815,0.13466 0.07207,0.20209c0.03919,0.11051 0.07065,0.22392 0.12068,0.3305c0.07301,0.15552 0.14819,0.31191 0.24365,0.45705c0.09037,0.13741 0.20798,0.26085 0.31383,0.3903c0.01955,0.0239 0.04015,0.04713 0.06254,0.07383z" fill="#B7B193"/>
  <path stroke="null" id="svg_127" d="m4.76004,12.27921c-0.03305,0.01605 -0.0609,0.03334 -0.0918,0.04307c-0.01376,0.00433 -0.03367,-0.00658 -0.05079,-0.01058c0.00748,-0.01226 0.01138,-0.02984 0.023,-0.03594c0.09565,-0.05023 0.19421,-0.09621 0.28889,-0.14778c0.06779,-0.03692 0.13084,-0.0806 0.19628,-0.12092c0.01927,-0.01187 0.03806,-0.02685 0.0597,-0.03238c0.01556,-0.00397 0.03549,0.00538 0.05347,0.00878c-0.00516,0.01391 -0.00544,0.03325 -0.01628,0.04084c-0.06535,0.04579 -0.13006,0.09328 -0.20087,0.13175c-0.08274,0.04495 -0.1715,0.08125 -0.2616,0.12314z" fill="#BF5041"/>
  <path stroke="null" id="svg_128" d="m4.55588,11.9819c0.11221,-0.01839 0.21983,-0.03525 0.32755,-0.05158c0.05935,-0.009 0.11865,-0.01892 0.17844,-0.02457c0.01892,-0.00179 0.03936,0.0089 0.0591,0.01388c-0.01398,0.01088 -0.02634,0.02864 -0.04219,0.03155c-0.14116,0.02589 -0.28292,0.04918 -0.42452,0.07318c-0.0269,0.00456 -0.05385,0.01235 -0.08078,0.01235c-0.02541,0.00001 -0.06797,-0.00236 -0.07311,-0.01398c-0.01714,-0.03881 0.03421,-0.02434 0.0555,-0.04084z" fill="#BF5041"/>
  <path stroke="null" id="svg_129" d="m6.92561,12.32822c0.09672,-0.06062 0.18953,-0.11961 0.28234,-0.17859c0.00552,0.0029 0.01104,0.0058 0.01655,0.0087c-0.00925,0.01705 -0.01346,0.03978 -0.02857,0.05021c-0.1001,0.06914 -0.19981,0.13924 -0.30521,0.20169c-0.0659,0.03904 -0.14092,0.0664 -0.2133,0.09626c-0.01426,0.00588 -0.03515,-0.00078 -0.05299,-0.00166c0.00668,-0.01615 0.00801,-0.03919 0.02108,-0.04711c0.03583,-0.02172 0.07654,-0.03721 0.11543,-0.05495c0.05352,-0.02441 0.10716,-0.04862 0.16465,-0.07455z" fill="#BF5041"/>
  <path stroke="null" id="svg_130" d="m1.14257,1.15387c-0.00336,-0.05533 0.06783,-0.13345 0.12189,-0.13512c0.01397,-0.00043 0.03269,0.01108 0.04145,0.02198c0.00696,0.00865 0.00814,0.02876 0.00133,0.03683c-0.02553,0.03028 -0.0533,0.05966 -0.08429,0.08559c-0.02519,0.02108 -0.05527,0.02764 -0.08039,-0.00929z" fill="#BF5041"/>
 </g>
</svg>
