<svg width="13" height="12" viewBox="0 0 13 12" fill="none" xmlns="http://www.w3.org/2000/svg">
 <path fill-rule="evenodd" clip-rule="evenodd" d="M1.88461 6C1.88461 8.549 3.95099 10.6154 6.5 10.6154C9.04901 10.6154 11.1154 8.549 11.1154 6C11.1154 3.45099 9.04901 1.38462 6.5 1.38462C3.95099 1.38462 1.88461 3.45099 1.88461 6ZM6.5 0C3.18629 0 0.5 2.68629 0.5 6C0.5 9.31371 3.18629 12 6.5 12C9.81371 12 12.5 9.31371 12.5 6C12.5 2.68629 9.81371 0 6.5 0Z" fill="#ccc"/>
 <path fill-rule="evenodd" clip-rule="evenodd" d="M6.71094 10.6106C6.15549 9.85438 6.27622 9.57041 6.25308 8.79051C6.24318 8.45711 6.31364 8.08917 6.37587 7.76421C6.45922 7.32901 6.52779 6.97091 6.36879 6.8762C6.32063 6.84751 6.25508 6.81527 6.17804 6.77738C5.8108 6.59677 5.1826 6.28783 4.93391 5.62362C4.637 4.83066 5.10641 4.72816 5.4302 4.65747C5.43451 4.65652 5.4388 4.65559 5.44307 4.65465C5.52574 4.63656 5.61143 4.60924 5.69283 4.58328C5.93043 4.50752 6.13145 4.44342 6.11421 4.65465L6.11381 4.65956C6.09055 4.94448 6.04664 5.48223 6.36879 5.55272C6.6928 5.62362 7.01681 5.69453 6.99367 6.07266C6.98591 6.19937 6.95476 6.34201 6.92635 6.47212C6.86999 6.73026 6.8244 6.93905 6.99367 6.8762C7.07502 6.84599 7.33362 6.83026 7.65845 6.8105C8.35013 6.76843 9.34213 6.70809 9.5626 6.45079C9.88661 6.07266 9.74775 5.81269 9.09973 5.62362C9.01617 5.59925 8.93608 5.57801 8.85906 5.55759C8.3387 5.41963 7.95827 5.31876 7.5954 4.53649C7.17882 3.63842 5.92906 3.63842 5.58191 3.73295C5.23476 3.82748 4.49416 4.15835 4.1933 4.89099C3.89243 5.62362 3.94531 9.84446 3.94531 9.84446C3.94531 9.84446 5.04687 10.6875 6.71094 10.6106ZM6.71595 5.24549C6.88211 5.24549 7.01681 5.11852 7.01681 4.96189C7.01681 4.80526 6.88211 4.67829 6.71595 4.67829C6.54978 4.67829 6.41508 4.80526 6.41508 4.96189C6.41508 5.11852 6.54978 5.24549 6.71595 5.24549Z" fill="#ccc"/>
</svg>
