<svg width="16" height="16" viewBox="0 0 16 16" fill="none" xmlns="http://www.w3.org/2000/svg">
 <path fill-rule="evenodd" clip-rule="evenodd" d="M1.84615 8C1.84615 11.3987 4.60132 14.1538 8 14.1538C11.3987 14.1538 14.1538 11.3987 14.1538 8C14.1538 4.60132 11.3987 1.84615 8 1.84615C4.60132 1.84615 1.84615 4.60132 1.84615 8ZM8 0C3.58172 0 0 3.58172 0 8C0 12.4183 3.58172 16 8 16C12.4183 16 16 12.4183 16 8C16 3.58172 12.4183 0 8 0Z" fill="#ccc"/>
 <path fill-rule="evenodd" clip-rule="evenodd" d="M8.28125 14.1475C7.54066 13.1392 7.70162 12.7605 7.67077 11.7207C7.65758 11.2761 7.75152 10.7856 7.8345 10.3523C7.94562 9.77201 8.03706 9.29455 7.82506 9.16826C7.76085 9.13001 7.67344 9.08703 7.57072 9.03651C7.08107 8.7957 6.24347 8.38377 5.91188 7.49817C5.516 6.44088 6.14188 6.30422 6.5736 6.20995C6.57935 6.2087 6.58507 6.20745 6.59075 6.2062C6.70099 6.18208 6.81524 6.14565 6.92377 6.11104C7.24057 6.01003 7.5086 5.92456 7.48561 6.2062L7.48508 6.21275C7.45406 6.59264 7.39552 7.30964 7.82506 7.40363C8.25706 7.49817 8.68908 7.5927 8.65822 8.09688C8.64788 8.26583 8.60635 8.45602 8.56847 8.62949C8.49332 8.97368 8.43253 9.25207 8.65822 9.16826C8.76669 9.12799 9.11149 9.10701 9.5446 9.08067C10.4668 9.02458 11.7895 8.94413 12.0835 8.60106C12.5155 8.09688 12.3303 7.75026 11.4663 7.49817C11.3549 7.46566 11.2481 7.43735 11.1454 7.41012C10.4516 7.22617 9.94435 7.09168 9.46053 6.04865C8.90509 4.85122 7.23875 4.85122 6.77588 4.97727C6.31301 5.10331 5.32555 5.54447 4.9244 6.52132C4.52324 7.49817 4.59375 13.126 4.59375 13.126C4.59375 13.126 6.0625 14.25 8.28125 14.1475ZM8.28793 6.99399C8.50948 6.99399 8.68908 6.82469 8.68908 6.61585C8.68908 6.40701 8.50948 6.23772 8.28793 6.23772C8.06638 6.23772 7.88678 6.40701 7.88678 6.61585C7.88678 6.82469 8.06638 6.99399 8.28793 6.99399Z" fill="#ccc"/>
</svg>
